# xmcd
#
# Track frame offsets: 
#        150
#        12079
#        32062
#        51481
#        75665
#        95582
#        112164
#
# Disc length: 2112 seconds
#
# Revision: 0
# Processed by: cddbd v1.5.2PL0 Copyright (c) Steve Scherf et al.
# Submitted via: ExactAudioCopy v1.3
#
DISCID=55083e07
DTITLE=Barrelhouse - Mooncalf Blues
DYEAR=2017
DGENRE=Dirty Blues
TTITLE0=Snatch It Back And Hold It
TTITLE1=Mojo Man
TTITLE2=Shades In The Rain
TTITLE3=Maggies Farm
TTITLE4=Goin' To Brownsville
TTITLE5=Shake 'Em On Down
TTITLE6=Back Door Man
EXTD=
EXTT0=
EXTT1=
EXTT2=
EXTT3=
EXTT4=
EXTT5=
EXTT6=
PLAYORDER=
